{"title":"Tooth Fairy 2 2012 DVDrip English Klam","uid":7102496,"size":1624852112,"categoryP":"video","categoryS":"movies","magnet":"?xt=urn:btih:9dcf369b6748ab16de059195b05b72467625bb6d&amp;dn=Tooth+Fairy+2+2012+DVDrip+English+Klam&amp;tr=udp%3A%2F%2Ftracker.openbittorrent.com%3A80&amp;tr=udp%3A%2F%2Fopen.demonii.com%3A1337&amp;tr=udp%3A%2F%2Ftracker.coppersurfer.tk%3A6969&amp;tr=udp%3A%2F%2Fexodus.desync.com%3A6969","seeders":0,"leechers":1,"uploader":"Klambake","files":-1,"time":1331740786,"description":"With: Larry the Cable Guy, David Mackey en Erin Beute\n\nLarry Guthrie verliest de liefde van zijn leven aan de populairste jongen uit de stad. Om haar terug te winnen gaat hij vrijwilligerswerk doen met de kinderen van haar naschoolse opvang. Wanneer Larry per ongeluk aan de kinderen vertelt dat de tandenfee niet bestaat, verandert hij zelf in een fee.\n\nLarry, the &quot;cable guy&quot;, is a southern hick, a good guy but not the brightest bulb in the box, and one day he gets transformed into a tooth fairy...\n\n------------------------ Dutch Friends ------------------------\n---------------------------------------------------------------\n- Bezoek ook eens mijn vrienden op: &lt;a href=&quot; http://www.Film-Test.nl&quot; rel=&quot;nofollow&quot; target=&quot;_NEW&quot;&gt; http://www.Film-Test.nl&lt;/a&gt; --\n----- voor mijn Nederlandse Sync. ondertitels ---- en meer ----\n------- http://www.Film-Test.nl ---- voor Films en meer -------\n---------------------------------------------------------------\n\nGeneral:\n\nComplete name                    : Tooth Fairy 2.avi\nFormat                           : AVI\nFormat/Info                      : Audio Video Interleave\nFile size                        : 1.51 GiB\nDuration                         : 1h 26mn\nOverall bit rate                 : 2 504 Kbps\n\nVideo:\n\nFormat                           : MPEG-4 Visual\nFormat profile                   : Simple@L3\nFormat settings, BVOP            : No\nFormat settings, QPel            : No\nFormat settings, GMC             : No warppoints\nFormat settings, Matrix          : Default (H.263)\nCodec ID                         : XVID\nCodec ID/Hint                    : XviD\nDuration                         : 1h 26mn\nBit rate                         : 2 045 Kbps\nWidth                            : 652 pixels\nHeight                           : 352 pixels\nDisplay aspect ratio             : 1.852\nFrame rate                       : 25.000 fps\nColor space                      : YUV\nChroma subsampling               : 4:2:0\nBit depth                        : 8 bits\nScan type                        : Progressive\nCompression mode                 : Lossy\nBits/(Pixel*Frame)               : 0.356\nStream size                      : 1.24 GiB (82%)\nWriting library                  : XviD 1.1.2 (UTC 2006-11-01)\n\nAudio:\n\nFormat                           : AC-3\nFormat/Info                      : Audio Coding 3\nMode extension                   : CM (complete main)\nCodec ID                         : 2000\nDuration                         : 1h 26mn\nBit rate mode                    : Constant\nBit rate                         : 448 Kbps\nChannel(s)                       : 6 channels\nChannel positions                : Front: L C R, Side: L R, LFE\nSampling rate                    : 48.0 KHz\nBit depth                        : 16 bits\nCompression mode                 : Lossy\nStream size                      : 277 MiB (18%)\nAlignment                        : Aligned on interleaves\nInterleave, duration             : 32 ms (0.80 video frame)\nInterleave, preload duration     : 192 ms\n\n","torrent":{"xt":"urn:btih:9dcf369b6748ab16de059195b05b72467625bb6d","amp;dn":"Tooth+Fairy+2+2012+DVDrip+English+Klam","amp;tr":["udp%3A%2F%2Ftracker.openbittorrent.com%3A80","udp%3A%2F%2Fopen.demonii.com%3A1337","udp%3A%2F%2Ftracker.coppersurfer.tk%3A6969","udp%3A%2F%2Fexodus.desync.com%3A6969"],"infoHash":"9dcf369b6748ab16de059195b05b72467625bb6d","infoHashBuffer":{"type":"Buffer","data":[157,207,54,155,103,72,171,22,222,5,145,149,176,91,114,70,118,37,187,109]},"announce":[],"urlList":[]}}